# xmcd
#
# Track frame offsets:
#	796
#	22339
#	36979
#	57903
#	81066
#	103045
#	120285
#	144383
#	158958
#	176071
#	193392
#	208137
#	222614
#
# Disc length: 3099 seconds
#
# Revision: 1
# Processed by: cddbd v1.5.1PL0 Copyright (c) Steve Scherf et al.
# Submitted via: audiograbber 1.80
#
DISCID=c60c110d
DTITLE=Malford Milligan Band - Sweet Cherry Soul
DYEAR=1900
DGENRE=
TTITLE0=Find Your Way Home
TTITLE1=Lockin' Stick
TTITLE2=I've Got Dreams To Remember
TTITLE3=River Runs Deep
TTITLE4=I've Never Been To Seminary
TTITLE5=Unforgiving Memories
TTITLE6=Against My Will
TTITLE7=Pouring Water On A Drowning Man
TTITLE8=You'll Be Mine
TTITLE9=Burning Fire
TTITLE10=Mama Talk To Your Daughter
TTITLE11=Shake 'Em On Down
TTITLE12=That Lonesome Road
EXTD=
EXTT0=
EXTT1=
EXTT2=
EXTT3=
EXTT4=
EXTT5=
EXTT6=
EXTT7=
EXTT8=
EXTT9=
EXTT10=
EXTT11=
EXTT12=
PLAYORDER=
